<svg xmlns="http://www.w3.org/2000/svg" viewBox="0 0 173.008 466.702">
  <g id="undraw_hamburger_re_7sfy" transform="translate(-279.333 0)">
    <path id="Path_6" data-name="Path 6" d="M305.026,264.957,284,330.358l-4.672,81.752,46.715,5.839,33.869-82.92,3.5,88.759,60.73-5.839s18.686-113.285-8.175-162.336Z" transform="translate(0 42.913)" fill="#2f2e41"/>
    <path id="Path_7" data-name="Path 7" d="M349.237,73.118l40.876-3.5,7.007,10.511s39.708,24.526,40.876,29.2S412.3,286.84,413.471,286.84,379.6,306.694,337.559,310.2s-43.308,2.239-43.308,2.239l17.615-43.115,4.088-54.307-3.5-102.774,31.533-23.358,5.255-15.766Z" transform="translate(2.504 11.687)" fill="#f2af5e"/>
    <g id="Group_8" data-name="Group 8" transform="translate(331.148 0)">
      <circle id="Ellipse_2" data-name="Ellipse 2" cx="35.599" cy="35.599" r="35.599" transform="translate(1.846 7.95)" fill="#ffb6b6"/>
      <path id="Path_8" data-name="Path 8" d="M387.29,72.8c1.961.334,4.263-4.419,6.463-9.048,4.6-9.69,7.532-15.85,7.755-24.558.19-7.421-6.31-23.5-15.728-29.989-3.2-4.365-12.511-4.7-20.464-7.32-14.9-4.911-7.412,1.251-16.871,1.908-.239.017-4.929,4.6-7.548,4.84-4.589.415-14.121,10.77-14.121,10.77s-5.829,24.114-1.439,27c-1.289,3.157,7.007-4.672,4.672-15.182-1.672-7.523,2.606-1.305,28.265,3.657,3.122.6,5.688-2.922,8.336-4.731.729-.5.04.3,2.585,6.463,3.209,7.777,3.934,8.2,3.878,10.34-.121,4.637-3.6,6-2.585,9.048a6.26,6.26,0,0,0,6.463,3.878c2.728-.563,3.2-3.938,5.17-3.878,1.691.051,3.7,2.6,3.878,5.17.377,5.417-7.642,6.906-9.048,14.218-.793,4.126,8.538-2.892,10.34-2.585Z" transform="translate(-323.7 0)" fill="#2f2e41"/>
    </g>
    <g id="Group_9" data-name="Group 9" transform="translate(291.766 49.941)">
      <path id="Path_9" data-name="Path 9" d="M298.576,81.678a8.974,8.974,0,0,0,5.754,4.379,21.189,21.189,0,0,0,7.4.4,69.117,69.117,0,0,0,22.3-5.684,22.216,22.216,0,0,0,7.884-5.207c2.1-2.381,3.3-5.761,2.386-8.8a357.142,357.142,0,0,1-46.091,14.7" transform="translate(-288.596 -38.732)" fill="#3f3d56"/>
      <path id="Path_10" data-name="Path 10" d="M292.088,69.682a29.789,29.789,0,0,0,1.355,8.628c1.011,2.754,3.018,5.307,5.65,6.1a11.643,11.643,0,0,0,5.62-.158C317.441,81.773,330.4,79.2,341.59,72.588c2.18-1.289,4.4-2.878,5.3-5.392s.284-5.42-.338-8.123c-.495-2.15-1.346-4.706-3.339-5.246a5,5,0,0,0-3.361.691,216.52,216.52,0,0,1-47.46,15.777" transform="translate(-289.625 -40.92)" fill="#6c63ff"/>
      <path id="Path_11" data-name="Path 11" d="M319.879,62.048l4.665,2.041A5.565,5.565,0,0,0,331.965,61a35.165,35.165,0,0,1,2.937-5.892,64.634,64.634,0,0,1-15.188,6.961" transform="translate(-284.987 -40.688)" fill="#e6e6e6"/>
      <path id="Path_12" data-name="Path 12" d="M294.207,70.363l4.469,1.956a5.6,5.6,0,0,0,7.462-3.1,34.575,34.575,0,0,1,2.842-5.674,63.558,63.558,0,0,1-14.935,6.845" transform="translate(-289.296 -39.273)" fill="#e6e6e6"/>
      <path id="Path_13" data-name="Path 13" d="M300.07,68.521h0a20.585,20.585,0,0,0,26.446-9.234q1.093-2.065,2.328-4.051a123.786,123.786,0,0,1-29.087,13.332" transform="translate(-288.337 -40.668)" fill="#e6e6e6"/>
      <path id="Path_14" data-name="Path 14" d="M294.007,67.918a2.264,2.264,0,0,0-.993,3.088,3.518,3.518,0,0,0,3.055,1.695,8.394,8.394,0,0,0,3.527-.879A58.211,58.211,0,0,0,306.1,68.3L323.4,57.968a2.778,2.778,0,0,0,1.463-1.508c.248-1.007-.764-1.97-1.8-2.069a5.249,5.249,0,0,0-2.927.9c-5.961,3.277-11.53,7.322-17.825,9.9a42.427,42.427,0,0,1-8.564,2.494" transform="translate(-289.511 -40.811)" fill="#ff6884"/>
      <path id="Path_15" data-name="Path 15" d="M308.818,60.466c-1.194.263-1.745,2.375-1.266,4.09A4.9,4.9,0,0,0,310.5,67.9a5.868,5.868,0,0,0,3.645-.172,41.713,41.713,0,0,0,6.885-3.022l18.382-9.414a2.65,2.65,0,0,0,1.608-1.7,3.354,3.354,0,0,0-1.643-3.492,3.675,3.675,0,0,0-3.039.382c-6.312,2.841-12.291,6.894-18.882,8.639a29.122,29.122,0,0,1-8.881.932" transform="translate(-287.058 -41.563)" fill="#ff6884"/>
      <path id="Path_16" data-name="Path 16" d="M344.2,53.7a186.2,186.2,0,0,0-44.321,17.9,15.431,15.431,0,0,1-3.588,1.648,5.1,5.1,0,0,1-3.885-.4c-1.857-1.1-2.654-3.618-2.375-5.794a13.608,13.608,0,0,1,2.622-5.827A45.963,45.963,0,0,1,307.284,47.2a31.351,31.351,0,0,1,19.442-4.217A27.005,27.005,0,0,1,344.526,53" transform="translate(-289.979 -42.762)" fill="#3f3d56"/>
    </g>
    <g id="Group_11" data-name="Group 11" transform="translate(324.766 69.827)">
      <path id="Path_25" data-name="Path 25" d="M340.74,71.949a24.107,24.107,0,0,1,2.109,11.187l18.374,35.8-17.292,8.245L327.154,89.977a24.107,24.107,0,0,1-6.76-9.159c-3.849-8.829-2.414-17.972,3.2-20.421s13.293,2.723,17.141,11.552h0Z" transform="translate(-318.235 -59.789)" fill="#ffb6b6"/>
      <path id="Path_26" data-name="Path 26" d="M407.577,108.464s21.022-18.686,33.869-3.5-43.212,128.467-43.212,128.467l-29.2-7.007-36.2-121.46,23.358-12.847,23.358,61.9Z" transform="translate(-315.784 -54.363)" fill="#f2af5e"/>
    </g>
    <path id="Path_27" data-name="Path 27" d="M294.117,76.514A24.107,24.107,0,0,0,296.253,87.7l-3.978,40.045,19.111,1.336,1.978-40.766a24.106,24.106,0,0,0,2.934-11c.346-9.625-4.339-17.606-10.464-17.826s-11.371,7.4-11.717,17.029h0Z" transform="translate(2.173 9.986)" fill="#ffb6b6"/>
    <path id="Path_28" data-name="Path 28" d="M323.953,215.154h0L317.53,101.286l-23.358-4.672-5.839,56.058,3.66,39.59a26,26,0,0,0,31.961,22.891Z" transform="translate(1.511 16.22)" fill="#f2af5e"/>
  </g>
</svg>
