<svg xmlns="http://www.w3.org/2000/svg" width="842.947" height="554.942" viewBox="0 0 842.947 554.942">
  <g id="undraw_profile_data_re_v81r" transform="translate(0)">
    <path id="Path_29" data-name="Path 29" d="M117.156,372.364q1.457,7.662,3.5,15.168c.147.581.312,1.153.477,1.734h18.9a6.077,6.077,0,0,1,6.071,6.071V449.21c.572,1.067,1.153,2.125,1.734,3.183,3,5.464,6.123,10.867,9.314,16.2A615.864,615.864,0,0,0,368.482,679.808l-5.134-11.586,5.654-.39c40.977-2.8,82.093-5.906,122.107-15.116,41.862-9.635,82.812-26.347,115.62-54.055s56.874-67.3,60.213-110.122a125.652,125.652,0,0,0-4.4-43.717c-7.692-27.335-24.5-51.93-48.747-66.482-38.089-22.852-87.773-18.195-127.926.815s-72.822,50.456-104.728,81.364A404.5,404.5,0,0,1,512.018,323.911c17.831-11.413,36.754-21.577,51.913-36.363s26.33-35.5,23.65-56.492c-3.044-23.814-22.548-41.888-42.087-55.824-7.805-5.568-15.862-10.849-24.17-15.706-23.441-13.737-48.8-24.1-75.58-27.942-36.277-5.212-75.459,2.7-103.271,26.564C311.14,185.04,298.288,228.411,299.51,269.9c-19.3-28.064-49.077-49.545-82.7-50.456-34.906-.937-68.087,21.117-85.57,51.349S110.626,338.064,117.156,372.364Z" transform="translate(175.648 -130.052)" fill="#fff"/>
    <path id="Path_30" data-name="Path 30" d="M655.183,504.517c-20.445-1.8-39.331-3.9-59.142-9.51-19.2-5.434-37.682-14.531-51.353-29.384-14.7-15.976-22.641-36.724-28.241-57.377-3.122-11.515-5.688-23.192-8.109-34.872q-3.94-19.01-7-38.187-6.094-38.174-8.7-76.8-.315-4.688-.578-9.38c-.109-1.929,2.893-1.923,3,0q2.142,38.072,7.706,75.846c3.66,24.742,8.343,49.377,14.285,73.676,5.034,20.585,11.551,41.491,24.461,58.627,12.106,16.069,29.592,26.57,48.472,32.849,19.212,6.389,39.468,8.94,59.544,10.836,2.463.233,3.192.454,5.656.671,1.909.168,1.927,3.17,0,3Z" transform="translate(-141.53 -145.654)" fill="#f2af5e"/>
    <path id="Path_31" data-name="Path 31" d="M412.336,495.1a325.222,325.222,0,0,0-76.057,13.4,328.687,328.687,0,0,0-70.833,30.832A320.668,320.668,0,0,0,205.8,584.246,328.315,328.315,0,0,0,125.861,704.44q-1.585,4.172-3.053,8.387c-.632,1.812-3.532,1.032-2.894-.8a328.373,328.373,0,0,1,31.852-66.246,332.649,332.649,0,0,1,45.7-57.577,324.318,324.318,0,0,1,58.348-46.564A331.212,331.212,0,0,1,402.88,492.751q4.723-.4,9.456-.651c1.93-.106,1.924,2.9,0,3Z" transform="translate(424.124 -178.118)" fill="#f2af5e"/>
    <path id="Path_32" data-name="Path 32" d="M466.53,167.639a176.741,176.741,0,0,0-46.4,22.673,217.889,217.889,0,0,0-39.609,35.175,291.607,291.607,0,0,0-32.8,45.2,385.634,385.634,0,0,0-26.078,53.019,479.73,479.73,0,0,0-18.991,57.667A542.173,542.173,0,0,0,285.285,502.22,480,480,0,0,0,287,560.346a370.237,370.237,0,0,0,8.727,53.514,252.85,252.85,0,0,0,15.745,46.273q2.339,5.065,4.963,9.991c.908,1.7-1.682,3.221-2.591,1.515a231.3,231.3,0,0,1-17.721-44.6,345.406,345.406,0,0,1-10.568-52.467,456.5,456.5,0,0,1-3.492-58.009A532.242,532.242,0,0,1,285.7,455.6,549.067,549.067,0,0,1,296.268,394.7a497.014,497.014,0,0,1,17.675-59.319,412.728,412.728,0,0,1,24.579-54.589,316.446,316.446,0,0,1,31.517-47.569,234.659,234.659,0,0,1,38.5-38.155,186.183,186.183,0,0,1,45.153-26.045q5.937-2.363,12.039-4.274c1.846-.581,2.636,2.315.8,2.893Z" transform="translate(229.63 -134.648)" fill="#f2af5e"/>
    <ellipse id="Ellipse_3" data-name="Ellipse 3" cx="214.641" cy="8.672" rx="214.641" ry="8.672" transform="translate(303.532 537.597)" fill="#fff"/>
    <path id="Path_33" data-name="Path 33" d="M660.366,445.662a9.123,9.123,0,0,1,.207,1.422l37.254,21.492,9.055-5.213L716.536,476l-19.372,13.807-42.5-33.53a9.1,9.1,0,1,1,5.7-10.616Z" transform="translate(-331.831 -171.021)" fill="#ffb8b8"/>
    <path id="Path_34" data-name="Path 34" d="M646.2,458.732l-29.333,20.907-13.12-16.449,28.515-22.88a11.555,11.555,0,0,1,16.641,2.306h0A11.555,11.555,0,0,1,646.2,458.732Z" transform="translate(-232.82 -170.905)" fill="#9d82d8"/>
    <path id="Path_35" data-name="Path 35" d="M451.094,600.884l-10.285,2.695-15.289-38.387,15.179-3.978Z" transform="translate(22.837 -74.508)" fill="#ffb8b8"/>
    <path id="Path_36" data-name="Path 36" d="M0,12.91H33.415V0H12.91A12.91,12.91,0,0,0,0,12.91H0Z" transform="translate(443.039 531.332) rotate(-14.683)" fill="#2f2e41"/>
    <path id="Path_37" data-name="Path 37" d="M533.094,608.8l-10.467-1.87,2.231-41.261,15.447,2.759Z" transform="translate(-150.59 -75.099)" fill="#ffb8b8"/>
    <path id="Path_38" data-name="Path 38" d="M0,12.911H33.415V0h-20.5A12.911,12.911,0,0,0,0,12.91H0Z" transform="matrix(0.984, 0.176, -0.176, 0.984, 352.39, 525.235)" fill="#2f2e41"/>
    <path id="Path_39" data-name="Path 39" d="M609.506,395.161c-2.579.628-4.677,3.256-5.938,6.3a43.946,43.946,0,0,0-2.345,9.9c-.99,6.293-1.941,13.106.107,18.935,2.4,6.832,8.8,10.41,14.343,8.728s9.96-7.993,11.467-15.258a36.952,36.952,0,0,0-2.536-21.754c-1.576-3.588-3.748-6.9-6.635-8.517a6.547,6.547,0,0,0-8.732,1.819" transform="translate(-206.392 -164.902)" fill="#2f2e41"/>
    <path id="Path_40" data-name="Path 40" d="M557.429,526.948,537.5,705.42l16.457,6.249,30.353-119.679,42.259,109.426,18.014,1S619.87,532.151,601.552,528.282Z" transform="translate(-168.908 -182.745)" fill="#2f2e41"/>
    <ellipse id="Ellipse_4" data-name="Ellipse 4" cx="21.3" cy="21.3" rx="21.3" ry="21.3" transform="translate(383.957 210.435)" fill="#ffb8b8"/>
    <path id="Path_41" data-name="Path 41" d="M597.947,431.668l23.018-3s15.012,18.014,14.011,49.038,2.5,40.532,2.5,40.532l-47.993.867C596.423,509.564,567.4,454.774,597.947,431.668Z" transform="translate(-201.831 -169.697)" fill="#9d82d8"/>
    <path id="Path_42" data-name="Path 42" d="M593.344,530.64a9.111,9.111,0,0,1,1.432.123l29.447-31.347-3-10.008,14.511-6.505,9.008,22.017-42.366,33.7a9.1,9.1,0,1,1-9.029-7.981Z" transform="translate(-209.593 -176.898)" fill="#ffb8b8"/>
    <path id="Path_43" data-name="Path 43" d="M612.835,445.091l13.639,33.34-19.015,9.007-15.747-32.994a11.555,11.555,0,0,1,6.053-15.672h0A11.555,11.555,0,0,1,612.835,445.091Z" transform="translate(-196.832 -170.924)" fill="#9d82d8"/>
    <path id="Path_44" data-name="Path 44" d="M601.536,412.61c-3.338-1.925-3.694-6.57-3.24-10.4s1.211-8.092-1.038-11.22c-2.684-3.734-8.077-3.808-12.674-3.93s-10.2-1.468-11.386-5.91c-.787-2.935.9-6.084,3.313-7.927s5.44-2.657,8.378-3.431c6.573-1.732,13.36-3.478,20.091-2.526a25.614,25.614,0,0,1,21.822,28.6c-1.089,8.543-2.669,12.274-1.632,16.04,1.932,7.016,10.26,11.523,10.426,18.8.13,5.691-4.9,10.081-9.8,12.971a32.9,32.9,0,0,1-12.571,4.773c-4.483.537-9.31-.491-12.649-3.529-4.307-3.919-5.373-10.467-4.138-16.157s4.4-10.745,7.538-15.653" transform="translate(-190.707 -161.51)" fill="#2f2e41"/>
    <path id="Path_45" data-name="Path 45" d="M720.805,426.948h307.869a7.817,7.817,0,0,1,7.805,7.805v197.73a7.817,7.817,0,0,1-7.805,7.805H720.805A7.817,7.817,0,0,1,713,632.483V434.753A7.817,7.817,0,0,1,720.805,426.948Zm-6.071,205.535a6.077,6.077,0,0,0,6.071,6.071h307.869a6.077,6.077,0,0,0,6.071-6.071V434.753a6.077,6.077,0,0,0-6.071-6.071H720.805a6.077,6.077,0,0,0-6.071,6.071Z" transform="translate(-713 -169.469)" fill="#fff"/>
    <path id="Path_46" data-name="Path 46" d="M740.649,530.751h48.565a7.38,7.38,0,0,0,7.371-7.372V474.815a7.38,7.38,0,0,0-7.371-7.372H740.649a7.38,7.38,0,0,0-7.372,7.372V523.38A7.38,7.38,0,0,0,740.649,530.751Z" transform="translate(-490.691 -174.845)" fill="#9d82d8"/>
    <path id="Path_47" data-name="Path 47" d="M739.653,598.227h275.779a5.637,5.637,0,1,0,0-11.274H739.65a5.637,5.637,0,1,0,0,11.274Z" transform="translate(-715.812 -190.711)" fill="#fff"/>
    <path id="Path_48" data-name="Path 48" d="M739.867,566.727h275.782a5.637,5.637,0,1,0,0-11.274H739.867a5.637,5.637,0,0,0,0,11.274Z" transform="translate(-716.218 -186.529)" fill="#fff"/>
    <path id="Path_49" data-name="Path 49" d="M853.864,523.717h40.76a5.637,5.637,0,0,0,0-11.274h-40.76a5.637,5.637,0,0,0,0,11.274Z" transform="translate(-694.056 -180.819)" fill="#fff"/>
    <path id="Path_50" data-name="Path 50" d="M853.867,491.727h176.917a5.637,5.637,0,1,0,0-11.274H853.867a5.637,5.637,0,1,0,0,11.274Z" transform="translate(-830.218 -176.572)" fill="#fff"/>
    <path id="Path_51" data-name="Path 51" d="M739.65,630.227H872.523a5.637,5.637,0,0,0,0-11.274H739.65a5.637,5.637,0,1,0,0,11.274Z" transform="translate(-572.904 -194.96)" fill="#fff"/>
  </g>
</svg>
